<?xml version="1.0" encoding="UTF-8" standalone="no"?>
<!DOCTYPE svg PUBLIC "-//W3C//DTD SVG 1.1//EN" "http://www.w3.org/Graphics/SVG/1.1/DTD/svg11.dtd">
<!-- Generated by graphviz version 2.40.1 (20161225.0304)
 -->
<!-- Title: FeatureModel Pages: 1 -->
<svg width="3335pt" height="534pt" viewBox="0.00 0.00 3334.98 534.00" xmlns="http://www.w3.org/2000/svg" xmlns:xlink="http://www.w3.org/1999/xlink">
<g id="graph0" class="graph" transform="scale(1 1) rotate(0) translate(4 530)">
<title>FeatureModel</title>
<polygon fill="#ffffff" stroke="transparent" points="-4,4 -4,-530 3330.9846,-530 3330.9846,4 -4,4"/>
<!-- model -->
<g id="node1" class="node">
<title>model</title>
<polygon fill="none" stroke="#000000" points="525.9869,-526 470.9907,-526 470.9907,-490 525.9869,-490 525.9869,-526"/>
<text text-anchor="middle" x="498.4888" y="-503.8" font-family="Times,serif" font-size="14.00" fill="#000000">model </text>
</g>
<!-- Base -->
<g id="node2" class="node">
<title>Base</title>
<polygon fill="none" stroke="#000000" points="182.4888,-454 128.4888,-454 128.4888,-418 182.4888,-418 182.4888,-454"/>
<text text-anchor="middle" x="155.4888" y="-431.8" font-family="Times,serif" font-size="14.00" fill="#000000">Base</text>
</g>
<!-- model&#45;&gt;Base -->
<g id="edge1" class="edge">
<title>model-&gt;Base</title>
<path fill="none" stroke="#000000" d="M471.1536,-505.8612C416.7259,-501.026 291.4397,-486.9986 191.4888,-454 191.0326,-453.8494 190.575,-453.6939 190.1163,-453.5339"/>
<ellipse fill="#000000" stroke="#000000" cx="186.3804" cy="-452.0667" rx="4" ry="4"/>
</g>
<!-- Ops -->
<g id="node3" class="node">
<title>Ops</title>
<polygon fill="none" stroke="#000000" points="254.4888,-454 200.4888,-454 200.4888,-418 254.4888,-418 254.4888,-454"/>
<text text-anchor="middle" x="227.4888" y="-431.8" font-family="Times,serif" font-size="14.00" fill="#000000">Ops </text>
</g>
<!-- model&#45;&gt;Ops -->
<g id="edge2" class="edge">
<title>model-&gt;Ops</title>
<path fill="none" stroke="#000000" d="M471.0125,-500.7C421.4795,-487.54 317.2947,-459.8599 262.6454,-445.3405"/>
<ellipse fill="#000000" stroke="#000000" cx="258.5008" cy="-444.2394" rx="4" ry="4"/>
</g>
<!-- MemoryBudget -->
<g id="node4" class="node">
<title>MemoryBudget</title>
<polygon fill="none" stroke="#000000" points="413.6416,-454 309.336,-454 309.336,-418 413.6416,-418 413.6416,-454"/>
<text text-anchor="middle" x="361.4888" y="-431.8" font-family="Times,serif" font-size="14.00" fill="#000000">MemoryBudget</text>
</g>
<!-- model&#45;&gt;MemoryBudget -->
<g id="edge3" class="edge">
<title>model-&gt;MemoryBudget</title>
<path fill="none" stroke="#000000" d="M471.0941,-493.6028C451.661,-483.3898 425.2239,-469.4958 403.183,-457.9123"/>
<ellipse fill="none" stroke="#000000" cx="399.434" cy="-455.942" rx="4" ry="4"/>
</g>
<!-- BTree -->
<g id="node5" class="node">
<title>BTree</title>
<polygon fill="none" stroke="#000000" points="486.9699,-454 432.0077,-454 432.0077,-418 486.9699,-418 486.9699,-454"/>
<text text-anchor="middle" x="459.4888" y="-431.8" font-family="Times,serif" font-size="14.00" fill="#000000">BTree </text>
</g>
<!-- model&#45;&gt;BTree -->
<g id="edge4" class="edge">
<title>model-&gt;BTree</title>
<path fill="none" stroke="#000000" d="M488.6475,-489.8314C484.018,-481.2848 478.417,-470.9443 473.3662,-461.6198"/>
<ellipse fill="#000000" stroke="#000000" cx="471.3678" cy="-457.9304" rx="4" ry="4"/>
</g>
<!-- Statistics -->
<g id="node6" class="node">
<title>Statistics</title>
<polygon fill="none" stroke="#000000" points="571.5443,-454 505.4333,-454 505.4333,-418 571.5443,-418 571.5443,-454"/>
<text text-anchor="middle" x="538.4888" y="-431.8" font-family="Times,serif" font-size="14.00" fill="#000000">Statistics</text>
</g>
<!-- model&#45;&gt;Statistics -->
<g id="edge5" class="edge">
<title>model-&gt;Statistics</title>
<path fill="none" stroke="#000000" d="M508.5825,-489.8314C513.3306,-481.2848 519.0753,-470.9443 524.2556,-461.6198"/>
<ellipse fill="none" stroke="#000000" cx="526.3166" cy="-457.9099" rx="4" ry="4"/>
</g>
<!-- Persistance -->
<g id="node7" class="node">
<title>Persistance</title>
<polygon fill="none" stroke="#000000" points="932.9622,-454 850.0154,-454 850.0154,-418 932.9622,-418 932.9622,-454"/>
<text text-anchor="middle" x="891.4888" y="-431.8" font-family="Times,serif" font-size="14.00" fill="#000000">Persistance </text>
</g>
<!-- model&#45;&gt;Persistance -->
<g id="edge6" class="edge">
<title>model-&gt;Persistance</title>
<path fill="none" stroke="#000000" d="M525.8118,-502.9943C591.3427,-490.9886 758.2053,-460.4184 841.9565,-445.0746"/>
<ellipse fill="#000000" stroke="#000000" cx="846.1054" cy="-444.3146" rx="4" ry="4"/>
</g>
<!-- ConcurrTrans -->
<g id="node8" class="node">
<title>ConcurrTrans</title>
<polygon fill="none" stroke="#000000" points="1527.2339,-454 1429.7437,-454 1429.7437,-418 1527.2339,-418 1527.2339,-454"/>
<text text-anchor="middle" x="1478.4888" y="-431.8" font-family="Times,serif" font-size="14.00" fill="#000000">ConcurrTrans </text>
</g>
<!-- model&#45;&gt;ConcurrTrans -->
<g id="edge7" class="edge">
<title>model-&gt;ConcurrTrans</title>
<path fill="none" stroke="#000000" d="M525.9805,-505.9802C659.0001,-496.2073 1236.9482,-453.7458 1421.5693,-440.1818"/>
<ellipse fill="#000000" stroke="#000000" cx="1425.8108" cy="-439.8703" rx="4" ry="4"/>
</g>
<!-- Logging -->
<g id="node9" class="node">
<title>Logging</title>
<polygon fill="none" stroke="#000000" points="2451.932,-454 2385.0456,-454 2385.0456,-418 2451.932,-418 2451.932,-454"/>
<text text-anchor="middle" x="2418.4888" y="-431.8" font-family="Times,serif" font-size="14.00" fill="#000000">Logging </text>
</g>
<!-- model&#45;&gt;Logging -->
<g id="edge8" class="edge">
<title>model-&gt;Logging</title>
<path fill="none" stroke="#000000" d="M525.9994,-506.9684C738.6016,-498.9958 2118.4687,-447.2508 2376.8413,-437.5618"/>
<ellipse fill="none" stroke="#000000" cx="2380.8613" cy="-437.4111" rx="4" ry="4"/>
</g>
<!-- RenameOp -->
<g id="node10" class="node">
<title>RenameOp</title>
<polygon fill="none" stroke="#000000" points="78.9664,-382 .0112,-382 .0112,-346 78.9664,-346 78.9664,-382"/>
<text text-anchor="middle" x="39.4888" y="-359.8" font-family="Times,serif" font-size="14.00" fill="#000000">RenameOp</text>
</g>
<!-- Ops&#45;&gt;RenameOp -->
<g id="edge9" class="edge">
<title>Ops-&gt;RenameOp</title>
<path fill="none" stroke="#000000" d="M200.14,-421.8754C197.2427,-420.5145 194.3208,-419.1971 191.4888,-418 146.8224,-399.1183 134.1387,-398.3612 88.4888,-382 87.9129,-381.7936 87.3334,-381.5856 86.7507,-381.3762"/>
<ellipse fill="none" stroke="#000000" cx="82.8116" cy="-379.9528" rx="4" ry="4"/>
</g>
<!-- DeleteOP -->
<g id="node11" class="node">
<title>DeleteOP</title>
<polygon fill="none" stroke="#000000" points="167.9109,-382 97.0667,-382 97.0667,-346 167.9109,-346 167.9109,-382"/>
<text text-anchor="middle" x="132.4888" y="-359.8" font-family="Times,serif" font-size="14.00" fill="#000000">DeleteOP</text>
</g>
<!-- Ops&#45;&gt;DeleteOP -->
<g id="edge10" class="edge">
<title>Ops-&gt;DeleteOP</title>
<path fill="none" stroke="#000000" d="M203.5163,-417.8314C191.2527,-408.5368 176.1899,-397.1208 163.0961,-387.1971"/>
<ellipse fill="none" stroke="#000000" cx="159.6415" cy="-384.5789" rx="4" ry="4"/>
</g>
<!-- TruncateOp -->
<g id="node12" class="node">
<title>TruncateOp</title>
<polygon fill="none" stroke="#000000" points="268.8431,-382 186.1345,-382 186.1345,-346 268.8431,-346 268.8431,-382"/>
<text text-anchor="middle" x="227.4888" y="-359.8" font-family="Times,serif" font-size="14.00" fill="#000000">TruncateOp</text>
</g>
<!-- Ops&#45;&gt;TruncateOp -->
<g id="edge11" class="edge">
<title>Ops-&gt;TruncateOp</title>
<path fill="none" stroke="#000000" d="M227.4888,-417.8314C227.4888,-409.5386 227.4888,-399.557 227.4888,-390.4533"/>
<ellipse fill="none" stroke="#000000" cx="227.4888" cy="-386.4133" rx="4" ry="4"/>
</g>
<!-- IEvictor -->
<g id="node13" class="node">
<title>IEvictor</title>
<polygon fill="none" stroke="#000000" points="352.3595,-382 286.6181,-382 286.6181,-346 352.3595,-346 352.3595,-382"/>
<text text-anchor="middle" x="319.4888" y="-359.8" font-family="Times,serif" font-size="14.00" fill="#000000">IEvictor </text>
</g>
<!-- BTree&#45;&gt;IEvictor -->
<g id="edge12" class="edge">
<title>BTree-&gt;IEvictor</title>
<path fill="none" stroke="#000000" d="M432.163,-421.9468C411.5552,-411.3484 382.968,-396.6464 359.7457,-384.7035"/>
<ellipse fill="none" stroke="#000000" cx="355.9686" cy="-382.761" rx="4" ry="4"/>
</g>
<!-- Verifier -->
<g id="node14" class="node">
<title>Verifier</title>
<polygon fill="none" stroke="#000000" points="430.7883,-382 370.1893,-382 370.1893,-346 430.7883,-346 430.7883,-382"/>
<text text-anchor="middle" x="400.4888" y="-359.8" font-family="Times,serif" font-size="14.00" fill="#000000">Verifier</text>
</g>
<!-- BTree&#45;&gt;Verifier -->
<g id="edge13" class="edge">
<title>BTree-&gt;Verifier</title>
<path fill="none" stroke="#000000" d="M444.6006,-417.8314C437.3891,-409.0309 428.6191,-398.3285 420.8042,-388.7917"/>
<ellipse fill="none" stroke="#000000" cx="418.1128" cy="-385.5072" rx="4" ry="4"/>
</g>
<!-- INCompressor -->
<g id="node15" class="node">
<title>INCompressor</title>
<polygon fill="none" stroke="#000000" points="546.9091,-382 448.0685,-382 448.0685,-346 546.9091,-346 546.9091,-382"/>
<text text-anchor="middle" x="497.4888" y="-359.8" font-family="Times,serif" font-size="14.00" fill="#000000">INCompressor</text>
</g>
<!-- BTree&#45;&gt;INCompressor -->
<g id="edge14" class="edge">
<title>BTree-&gt;INCompressor</title>
<path fill="none" stroke="#000000" d="M469.0778,-417.8314C473.5885,-409.2848 479.046,-398.9443 483.9672,-389.6198"/>
<ellipse fill="none" stroke="#000000" cx="485.9036" cy="-385.9508" rx="4" ry="4"/>
</g>
<!-- IICLeaner -->
<g id="node16" class="node">
<title>IICLeaner</title>
<polygon fill="none" stroke="#000000" points="642.0036,-382 564.974,-382 564.974,-346 642.0036,-346 642.0036,-382"/>
<text text-anchor="middle" x="603.4888" y="-359.8" font-family="Times,serif" font-size="14.00" fill="#000000">IICLeaner </text>
</g>
<!-- Persistance&#45;&gt;IICLeaner -->
<g id="edge15" class="edge">
<title>Persistance-&gt;IICLeaner</title>
<path fill="none" stroke="#000000" d="M850.0813,-428.6217C801.6908,-419.5637 719.4516,-402.8114 650.4888,-382 650.23,-381.9219 649.9706,-381.8431 649.7106,-381.7635"/>
<ellipse fill="#000000" stroke="#000000" cx="645.8681" cy="-380.5174" rx="4" ry="4"/>
</g>
<!-- FileHandleCache -->
<g id="node17" class="node">
<title>FileHandleCache</title>
<polygon fill="none" stroke="#000000" points="773.1742,-382 659.8034,-382 659.8034,-346 773.1742,-346 773.1742,-382"/>
<text text-anchor="middle" x="716.4888" y="-359.8" font-family="Times,serif" font-size="14.00" fill="#000000">FileHandleCache</text>
</g>
<!-- Persistance&#45;&gt;FileHandleCache -->
<g id="edge16" class="edge">
<title>Persistance-&gt;FileHandleCache</title>
<path fill="none" stroke="#000000" d="M850.0162,-418.937C825.4541,-408.8314 794.1274,-395.9427 767.9908,-385.1894"/>
<ellipse fill="none" stroke="#000000" cx="764.1131" cy="-383.594" rx="4" ry="4"/>
</g>
<!-- DiskFullErro -->
<g id="node18" class="node">
<title>DiskFullErro</title>
<polygon fill="none" stroke="#000000" points="881.3683,-382 791.6093,-382 791.6093,-346 881.3683,-346 881.3683,-382"/>
<text text-anchor="middle" x="836.4888" y="-359.8" font-family="Times,serif" font-size="14.00" fill="#000000">DiskFullErro</text>
</g>
<!-- Persistance&#45;&gt;DiskFullErro -->
<g id="edge17" class="edge">
<title>Persistance-&gt;DiskFullErro</title>
<path fill="none" stroke="#000000" d="M877.61,-417.8314C870.8874,-409.0309 862.7119,-398.3285 855.4269,-388.7917"/>
<ellipse fill="none" stroke="#000000" cx="852.9827" cy="-385.592" rx="4" ry="4"/>
</g>
<!-- Checkpointer -->
<g id="node19" class="node">
<title>Checkpointer</title>
<polygon fill="none" stroke="#000000" points="993.911,-382 899.0666,-382 899.0666,-346 993.911,-346 993.911,-382"/>
<text text-anchor="middle" x="946.4888" y="-359.8" font-family="Times,serif" font-size="14.00" fill="#000000">Checkpointer </text>
</g>
<!-- Persistance&#45;&gt;Checkpointer -->
<g id="edge18" class="edge">
<title>Persistance-&gt;Checkpointer</title>
<path fill="none" stroke="#000000" d="M905.3676,-417.8314C912.0902,-409.0309 920.2657,-398.3285 927.5507,-388.7917"/>
<ellipse fill="#000000" stroke="#000000" cx="929.9949" cy="-385.592" rx="4" ry="4"/>
</g>
<!-- EnvironmentLocking -->
<g id="node20" class="node">
<title>EnvironmentLocking</title>
<polygon fill="none" stroke="#000000" points="1147.2464,-382 1011.7312,-382 1011.7312,-346 1147.2464,-346 1147.2464,-382"/>
<text text-anchor="middle" x="1079.4888" y="-359.8" font-family="Times,serif" font-size="14.00" fill="#000000">EnvironmentLocking</text>
</g>
<!-- Persistance&#45;&gt;EnvironmentLocking -->
<g id="edge19" class="edge">
<title>Persistance-&gt;EnvironmentLocking</title>
<path fill="none" stroke="#000000" d="M932.7462,-420.1993C959.7343,-409.8634 995.2986,-396.2431 1024.6559,-384.9998"/>
<ellipse fill="none" stroke="#000000" cx="1028.6315" cy="-383.4773" rx="4" ry="4"/>
</g>
<!-- IIO -->
<g id="node21" class="node">
<title>IIO</title>
<polygon fill="none" stroke="#000000" points="1219.4888,-382 1165.4888,-382 1165.4888,-346 1219.4888,-346 1219.4888,-382"/>
<text text-anchor="middle" x="1192.4888" y="-359.8" font-family="Times,serif" font-size="14.00" fill="#000000">IIO </text>
</g>
<!-- Persistance&#45;&gt;IIO -->
<g id="edge20" class="edge">
<title>Persistance-&gt;IIO</title>
<path fill="none" stroke="#000000" d="M932.7806,-431.0087C985.6794,-423.8447 1079.7056,-408.5006 1156.4888,-382 1156.9429,-381.8433 1157.3986,-381.682 1157.8555,-381.5165"/>
<ellipse fill="#000000" stroke="#000000" cx="1161.5822" cy="-380.017" rx="4" ry="4"/>
</g>
<!-- Checksum -->
<g id="node22" class="node">
<title>Checksum</title>
<polygon fill="none" stroke="#000000" points="1313.0899,-382 1237.8877,-382 1237.8877,-346 1313.0899,-346 1313.0899,-382"/>
<text text-anchor="middle" x="1275.4888" y="-359.8" font-family="Times,serif" font-size="14.00" fill="#000000">Checksum</text>
</g>
<!-- Persistance&#45;&gt;Checksum -->
<g id="edge21" class="edge">
<title>Persistance-&gt;Checksum</title>
<path fill="none" stroke="#000000" d="M932.7853,-432.1638C996.9033,-425.5882 1123.9077,-410.0805 1228.4888,-382 1228.9635,-381.8725 1229.44,-381.742 1229.918,-381.6086"/>
<ellipse fill="none" stroke="#000000" cx="1233.92" cy="-380.3901" rx="4" ry="4"/>
</g>
<!-- Transactions -->
<g id="node23" class="node">
<title>Transactions</title>
<polygon fill="none" stroke="#000000" points="1418.0175,-382 1330.9601,-382 1330.9601,-346 1418.0175,-346 1418.0175,-382"/>
<text text-anchor="middle" x="1374.4888" y="-359.8" font-family="Times,serif" font-size="14.00" fill="#000000">Transactions</text>
</g>
<!-- ConcurrTrans&#45;&gt;Transactions -->
<g id="edge22" class="edge">
<title>ConcurrTrans-&gt;Transactions</title>
<path fill="none" stroke="#000000" d="M1452.2452,-417.8314C1438.6966,-408.4516 1422.0271,-396.9112 1407.6018,-386.9244"/>
<ellipse fill="none" stroke="#000000" cx="1404.0128" cy="-384.4397" rx="4" ry="4"/>
</g>
<!-- CheckLeaks -->
<g id="node24" class="node">
<title>CheckLeaks</title>
<polygon fill="none" stroke="#000000" points="1521.1812,-382 1435.7964,-382 1435.7964,-346 1521.1812,-346 1521.1812,-382"/>
<text text-anchor="middle" x="1478.4888" y="-359.8" font-family="Times,serif" font-size="14.00" fill="#000000">CheckLeaks</text>
</g>
<!-- ConcurrTrans&#45;&gt;CheckLeaks -->
<g id="edge23" class="edge">
<title>ConcurrTrans-&gt;CheckLeaks</title>
<path fill="none" stroke="#000000" d="M1478.4888,-417.8314C1478.4888,-409.5386 1478.4888,-399.557 1478.4888,-390.4533"/>
<ellipse fill="none" stroke="#000000" cx="1478.4888" cy="-386.4133" rx="4" ry="4"/>
</g>
<!-- FSync -->
<g id="node25" class="node">
<title>FSync</title>
<polygon fill="none" stroke="#000000" points="1593.4888,-382 1539.4888,-382 1539.4888,-346 1593.4888,-346 1593.4888,-382"/>
<text text-anchor="middle" x="1566.4888" y="-359.8" font-family="Times,serif" font-size="14.00" fill="#000000">FSync</text>
</g>
<!-- ConcurrTrans&#45;&gt;FSync -->
<g id="edge24" class="edge">
<title>ConcurrTrans-&gt;FSync</title>
<path fill="none" stroke="#000000" d="M1500.6949,-417.8314C1511.9507,-408.6221 1525.752,-397.3301 1537.8025,-387.4706"/>
<ellipse fill="none" stroke="#000000" cx="1541.1939" cy="-384.6958" rx="4" ry="4"/>
</g>
<!-- Latches -->
<g id="node26" class="node">
<title>Latches</title>
<polygon fill="none" stroke="#000000" points="1671.0222,-382 1611.9554,-382 1611.9554,-346 1671.0222,-346 1671.0222,-382"/>
<text text-anchor="middle" x="1641.4888" y="-359.8" font-family="Times,serif" font-size="14.00" fill="#000000">Latches</text>
</g>
<!-- ConcurrTrans&#45;&gt;Latches -->
<g id="edge25" class="edge">
<title>ConcurrTrans-&gt;Latches</title>
<path fill="none" stroke="#000000" d="M1520.4881,-417.9787C1544.5492,-407.5873 1575.2793,-394.2021 1602.4888,-382 1603.0502,-381.7483 1603.6158,-381.4941 1604.185,-381.2378"/>
<ellipse fill="none" stroke="#000000" cx="1608.0658" cy="-379.4776" rx="4" ry="4"/>
</g>
<!-- LoggingBase -->
<g id="node27" class="node">
<title>LoggingBase</title>
<polygon fill="none" stroke="#000000" points="1779.6431,-382 1689.3345,-382 1689.3345,-346 1779.6431,-346 1779.6431,-382"/>
<text text-anchor="middle" x="1734.4888" y="-359.8" font-family="Times,serif" font-size="14.00" fill="#000000">LoggingBase</text>
</g>
<!-- Logging&#45;&gt;LoggingBase -->
<g id="edge26" class="edge">
<title>Logging-&gt;LoggingBase</title>
<path fill="none" stroke="#000000" d="M2384.8723,-434.1691C2271.5731,-427.8339 1904.3287,-405.9198 1788.4888,-382 1788.2166,-381.9438 1787.9439,-381.8867 1787.6707,-381.8286"/>
<ellipse fill="#000000" stroke="#000000" cx="1783.5403" cy="-380.8431" rx="4" ry="4"/>
</g>
<!-- LoggingConfig -->
<g id="node28" class="node">
<title>LoggingConfig</title>
<polygon fill="none" stroke="#000000" points="1899.8203,-382 1797.1573,-382 1797.1573,-346 1899.8203,-346 1899.8203,-382"/>
<text text-anchor="middle" x="1848.4888" y="-359.8" font-family="Times,serif" font-size="14.00" fill="#000000">LoggingConfig</text>
</g>
<!-- Logging&#45;&gt;LoggingConfig -->
<g id="edge27" class="edge">
<title>Logging-&gt;LoggingConfig</title>
<path fill="none" stroke="#000000" d="M2384.7462,-434.5973C2302.5468,-430.7115 2085.6849,-417.6378 1908.4888,-382 1908.2189,-381.9457 1907.9485,-381.8908 1907.6776,-381.8351"/>
<ellipse fill="none" stroke="#000000" cx="1903.6201" cy="-380.9262" rx="4" ry="4"/>
</g>
<!-- LoggingSevere -->
<g id="node29" class="node">
<title>LoggingSevere</title>
<polygon fill="none" stroke="#000000" points="2019.0201,-382 1917.9575,-382 1917.9575,-346 2019.0201,-346 2019.0201,-382"/>
<text text-anchor="middle" x="1968.4888" y="-359.8" font-family="Times,serif" font-size="14.00" fill="#000000">LoggingSevere</text>
</g>
<!-- Logging&#45;&gt;LoggingSevere -->
<g id="edge28" class="edge">
<title>Logging-&gt;LoggingSevere</title>
<path fill="none" stroke="#000000" d="M2384.7948,-433.0963C2316.8382,-426.8541 2158.7244,-410.375 2028.4888,-382 2028.0073,-381.8951 2027.5241,-381.7883 2027.0393,-381.6796"/>
<ellipse fill="none" stroke="#000000" cx="2022.9747" cy="-380.7068" rx="4" ry="4"/>
</g>
<!-- LoggingEvictor -->
<g id="node30" class="node">
<title>LoggingEvictor</title>
<polygon fill="none" stroke="#000000" points="2141.6416,-382 2037.336,-382 2037.336,-346 2141.6416,-346 2141.6416,-382"/>
<text text-anchor="middle" x="2089.4888" y="-359.8" font-family="Times,serif" font-size="14.00" fill="#000000">LoggingEvictor</text>
</g>
<!-- Logging&#45;&gt;LoggingEvictor -->
<g id="edge29" class="edge">
<title>Logging-&gt;LoggingEvictor</title>
<path fill="none" stroke="#000000" d="M2384.991,-430.1483C2334.2136,-421.0703 2234.8432,-402.4915 2151.4888,-382 2150.897,-381.8545 2150.3023,-381.7071 2149.7052,-381.5578"/>
<ellipse fill="none" stroke="#000000" cx="2145.7101" cy="-380.5278" rx="4" ry="4"/>
</g>
<!-- LoggingCleaner -->
<g id="node31" class="node">
<title>LoggingCleaner</title>
<polygon fill="none" stroke="#000000" points="2266.9636,-382 2160.014,-382 2160.014,-346 2266.9636,-346 2266.9636,-382"/>
<text text-anchor="middle" x="2213.4888" y="-359.8" font-family="Times,serif" font-size="14.00" fill="#000000">LoggingCleaner</text>
</g>
<!-- Logging&#45;&gt;LoggingCleaner -->
<g id="edge30" class="edge">
<title>Logging-&gt;LoggingCleaner</title>
<path fill="none" stroke="#000000" d="M2384.6372,-424.1107C2354.2725,-413.446 2309.0323,-397.5568 2272.6898,-384.7926"/>
<ellipse fill="none" stroke="#000000" cx="2268.8523" cy="-383.4448" rx="4" ry="4"/>
</g>
<!-- LoggingRecovery -->
<g id="node32" class="node">
<title>LoggingRecovery</title>
<polygon fill="none" stroke="#000000" points="2402.073,-382 2284.9046,-382 2284.9046,-346 2402.073,-346 2402.073,-382"/>
<text text-anchor="middle" x="2343.4888" y="-359.8" font-family="Times,serif" font-size="14.00" fill="#000000">LoggingRecovery</text>
</g>
<!-- Logging&#45;&gt;LoggingRecovery -->
<g id="edge31" class="edge">
<title>Logging-&gt;LoggingRecovery</title>
<path fill="none" stroke="#000000" d="M2399.5631,-417.8314C2390.059,-408.7074 2378.4253,-397.539 2368.223,-387.7449"/>
<ellipse fill="none" stroke="#000000" cx="2365.294" cy="-384.933" rx="4" ry="4"/>
</g>
<!-- LoggingDbLogHandler -->
<g id="node33" class="node">
<title>LoggingDbLogHandler</title>
<polygon fill="none" stroke="#000000" points="2568.6783,-382 2420.2993,-382 2420.2993,-346 2568.6783,-346 2568.6783,-382"/>
<text text-anchor="middle" x="2494.4888" y="-359.8" font-family="Times,serif" font-size="14.00" fill="#000000">LoggingDbLogHandler</text>
</g>
<!-- Logging&#45;&gt;LoggingDbLogHandler -->
<g id="edge32" class="edge">
<title>Logging-&gt;LoggingDbLogHandler</title>
<path fill="none" stroke="#000000" d="M2437.6668,-417.8314C2447.2977,-408.7074 2459.0865,-397.539 2469.4248,-387.7449"/>
<ellipse fill="none" stroke="#000000" cx="2472.4131" cy="-384.9138" rx="4" ry="4"/>
</g>
<!-- LoggingConsoleHandler -->
<g id="node34" class="node">
<title>LoggingConsoleHandler</title>
<polygon fill="none" stroke="#000000" points="2740.906,-382 2586.0716,-382 2586.0716,-346 2740.906,-346 2740.906,-382"/>
<text text-anchor="middle" x="2663.4888" y="-359.8" font-family="Times,serif" font-size="14.00" fill="#000000">LoggingConsoleHandler</text>
</g>
<!-- Logging&#45;&gt;LoggingConsoleHandler -->
<g id="edge33" class="edge">
<title>Logging-&gt;LoggingConsoleHandler</title>
<path fill="none" stroke="#000000" d="M2452.0413,-426.1397C2488.4639,-415.4359 2547.6478,-398.0431 2594.1507,-384.3769"/>
<ellipse fill="none" stroke="#000000" cx="2598.2496" cy="-383.1724" rx="4" ry="4"/>
</g>
<!-- LoggingInfo -->
<g id="node35" class="node">
<title>LoggingInfo</title>
<polygon fill="none" stroke="#000000" points="2845.7535,-382 2759.2241,-382 2759.2241,-346 2845.7535,-346 2845.7535,-382"/>
<text text-anchor="middle" x="2802.4888" y="-359.8" font-family="Times,serif" font-size="14.00" fill="#000000">LoggingInfo</text>
</g>
<!-- Logging&#45;&gt;LoggingInfo -->
<g id="edge34" class="edge">
<title>Logging-&gt;LoggingInfo</title>
<path fill="none" stroke="#000000" d="M2452.2195,-432.3698C2512.5009,-425.4687 2642.4356,-408.7155 2749.4888,-382 2750.0722,-381.8544 2750.6583,-381.7054 2751.2468,-381.5531"/>
<ellipse fill="none" stroke="#000000" cx="2755.1314" cy="-380.4786" rx="4" ry="4"/>
</g>
<!-- LoggingFileHandler -->
<g id="node36" class="node">
<title>LoggingFileHandler</title>
<polygon fill="none" stroke="#000000" points="2994.7978,-382 2864.1798,-382 2864.1798,-346 2994.7978,-346 2994.7978,-382"/>
<text text-anchor="middle" x="2929.4888" y="-359.8" font-family="Times,serif" font-size="14.00" fill="#000000">LoggingFileHandler</text>
</g>
<!-- Logging&#45;&gt;LoggingFileHandler -->
<g id="edge35" class="edge">
<title>Logging-&gt;LoggingFileHandler</title>
<path fill="none" stroke="#000000" d="M2452.049,-433.1395C2525.4312,-426.6016 2705.5168,-409.0138 2854.4888,-382 2855.0817,-381.8925 2855.6769,-381.7832 2856.2742,-381.6722"/>
<ellipse fill="none" stroke="#000000" cx="2860.2076" cy="-380.9066" rx="4" ry="4"/>
</g>
<!-- LoggingFine -->
<g id="node37" class="node">
<title>LoggingFine</title>
<polygon fill="none" stroke="#000000" points="3100.8204,-382 3012.1572,-382 3012.1572,-346 3100.8204,-346 3100.8204,-382"/>
<text text-anchor="middle" x="3056.4888" y="-359.8" font-family="Times,serif" font-size="14.00" fill="#000000">LoggingFine</text>
</g>
<!-- Logging&#45;&gt;LoggingFine -->
<g id="edge36" class="edge">
<title>Logging-&gt;LoggingFine</title>
<path fill="none" stroke="#000000" d="M2451.9411,-433.9511C2559.6709,-427.1899 2896.7462,-404.7205 3003.4888,-382 3003.7561,-381.9431 3004.024,-381.8853 3004.2923,-381.8266"/>
<ellipse fill="none" stroke="#000000" cx="3008.2834" cy="-380.849" rx="4" ry="4"/>
</g>
<!-- LoggingFinest -->
<g id="node38" class="node">
<title>LoggingFinest</title>
<polygon fill="none" stroke="#000000" points="3216.1556,-382 3118.822,-382 3118.822,-346 3216.1556,-346 3216.1556,-382"/>
<text text-anchor="middle" x="3167.4888" y="-359.8" font-family="Times,serif" font-size="14.00" fill="#000000">LoggingFinest</text>
</g>
<!-- Logging&#45;&gt;LoggingFinest -->
<g id="edge37" class="edge">
<title>Logging-&gt;LoggingFinest</title>
<path fill="none" stroke="#000000" d="M2451.9535,-434.3755C2572.0441,-428.3916 2980.9703,-406.644 3109.4888,-382 3109.8642,-381.928 3110.2405,-381.8545 3110.6178,-381.7794"/>
<ellipse fill="none" stroke="#000000" cx="3114.731" cy="-380.8672" rx="4" ry="4"/>
</g>
<!-- LoggingFiner -->
<g id="node39" class="node">
<title>LoggingFiner</title>
<polygon fill="none" stroke="#000000" points="3326.9804,-382 3233.9972,-382 3233.9972,-346 3326.9804,-346 3326.9804,-382"/>
<text text-anchor="middle" x="3280.4888" y="-359.8" font-family="Times,serif" font-size="14.00" fill="#000000">LoggingFiner</text>
</g>
<!-- Logging&#45;&gt;LoggingFiner -->
<g id="edge38" class="edge">
<title>Logging-&gt;LoggingFiner</title>
<path fill="none" stroke="#000000" d="M2451.9728,-434.873C2584.6363,-430.236 3073.51,-411.473 3225.4888,-382 3225.6614,-381.9665 3225.8342,-381.9327 3226.0072,-381.8984"/>
<ellipse fill="none" stroke="#000000" cx="3229.9879" cy="-381.0038" rx="4" ry="4"/>
</g>
<!-- Evictor -->
<g id="node40" class="node">
<title>Evictor</title>
<polygon fill="none" stroke="#000000" points="190.1982,-310 132.7794,-310 132.7794,-274 190.1982,-274 190.1982,-310"/>
<text text-anchor="middle" x="161.4888" y="-287.8" font-family="Times,serif" font-size="14.00" fill="#000000">Evictor</text>
</g>
<!-- IEvictor&#45;&gt;Evictor -->
<g id="edge39" class="edge">
<title>IEvictor-&gt;Evictor</title>
<path fill="none" stroke="#000000" d="M286.5589,-349.3892C262.4036,-338.6211 228.8371,-323.5527 199.4888,-310 198.8219,-309.692 198.1487,-309.3805 197.4708,-309.0661"/>
<ellipse fill="#000000" stroke="#000000" cx="193.7192" cy="-307.3151" rx="4" ry="4"/>
</g>
<!-- EvictorDaemon -->
<g id="node41" class="node">
<title>EvictorDaemon</title>
<polygon fill="none" stroke="#000000" points="312.6248,-310 208.3528,-310 208.3528,-274 312.6248,-274 312.6248,-310"/>
<text text-anchor="middle" x="260.4888" y="-287.8" font-family="Times,serif" font-size="14.00" fill="#000000">EvictorDaemon</text>
</g>
<!-- IEvictor&#45;&gt;EvictorDaemon -->
<g id="edge40" class="edge">
<title>IEvictor-&gt;EvictorDaemon</title>
<path fill="none" stroke="#000000" d="M304.6006,-345.8314C297.3891,-337.0309 288.6191,-326.3285 280.8042,-316.7917"/>
<ellipse fill="none" stroke="#000000" cx="278.1128" cy="-313.5072" rx="4" ry="4"/>
</g>
<!-- CriticalEviction -->
<g id="node42" class="node">
<title>CriticalEviction</title>
<polygon fill="none" stroke="#000000" points="436.4175,-310 330.5601,-310 330.5601,-274 436.4175,-274 436.4175,-310"/>
<text text-anchor="middle" x="383.4888" y="-287.8" font-family="Times,serif" font-size="14.00" fill="#000000">CriticalEviction</text>
</g>
<!-- IEvictor&#45;&gt;CriticalEviction -->
<g id="edge41" class="edge">
<title>IEvictor-&gt;CriticalEviction</title>
<path fill="none" stroke="#000000" d="M335.6387,-345.8314C343.5366,-336.9463 353.1577,-326.1225 361.696,-316.5169"/>
<ellipse fill="none" stroke="#000000" cx="364.464" cy="-313.4029" rx="4" ry="4"/>
</g>
<!-- LookAHEADCache -->
<g id="node43" class="node">
<title>LookAHEADCache</title>
<polygon fill="none" stroke="#000000" points="583.0017,-310 453.9759,-310 453.9759,-274 583.0017,-274 583.0017,-310"/>
<text text-anchor="middle" x="518.4888" y="-287.8" font-family="Times,serif" font-size="14.00" fill="#000000">LookAHEADCache</text>
</g>
<!-- IICLeaner&#45;&gt;LookAHEADCache -->
<g id="edge42" class="edge">
<title>IICLeaner-&gt;LookAHEADCache</title>
<path fill="none" stroke="#000000" d="M582.0397,-345.8314C571.1677,-336.6221 557.8368,-325.3301 546.1972,-315.4706"/>
<ellipse fill="none" stroke="#000000" cx="542.9832" cy="-312.7482" rx="4" ry="4"/>
</g>
<!-- Cleaner -->
<g id="node44" class="node">
<title>Cleaner</title>
<polygon fill="none" stroke="#000000" points="661.0222,-310 601.9554,-310 601.9554,-274 661.0222,-274 661.0222,-310"/>
<text text-anchor="middle" x="631.4888" y="-287.8" font-family="Times,serif" font-size="14.00" fill="#000000">Cleaner</text>
</g>
<!-- IICLeaner&#45;&gt;Cleaner -->
<g id="edge43" class="edge">
<title>IICLeaner-&gt;Cleaner</title>
<path fill="none" stroke="#000000" d="M610.5544,-345.8314C613.8452,-337.3694 617.8198,-327.1489 621.4177,-317.8971"/>
<ellipse fill="#000000" stroke="#000000" cx="622.8783" cy="-314.1413" rx="4" ry="4"/>
</g>
<!-- CleanerDaemon -->
<g id="node45" class="node">
<title>CleanerDaemon</title>
<polygon fill="none" stroke="#000000" points="785.9468,-310 679.0308,-310 679.0308,-274 785.9468,-274 785.9468,-310"/>
<text text-anchor="middle" x="732.4888" y="-287.8" font-family="Times,serif" font-size="14.00" fill="#000000">CleanerDaemon</text>
</g>
<!-- IICLeaner&#45;&gt;CleanerDaemon -->
<g id="edge44" class="edge">
<title>IICLeaner-&gt;CleanerDaemon</title>
<path fill="none" stroke="#000000" d="M636.0409,-345.8314C653.3047,-336.1958 674.6537,-324.2801 692.8736,-314.1108"/>
<ellipse fill="none" stroke="#000000" cx="696.4543" cy="-312.1123" rx="4" ry="4"/>
</g>
<!-- CPBytes -->
<g id="node46" class="node">
<title>CPBytes</title>
<polygon fill="none" stroke="#000000" points="896.9944,-310 831.9832,-310 831.9832,-274 896.9944,-274 896.9944,-310"/>
<text text-anchor="middle" x="864.4888" y="-287.8" font-family="Times,serif" font-size="14.00" fill="#000000">CPBytes</text>
</g>
<!-- Checkpointer&#45;&gt;CPBytes -->
<g id="edge45" class="edge">
<title>Checkpointer-&gt;CPBytes</title>
<path fill="none" stroke="#000000" d="M925.7967,-345.8314C915.3084,-336.6221 902.4481,-325.3301 891.2192,-315.4706"/>
<ellipse fill="none" stroke="#000000" cx="888.18" cy="-312.802" rx="4" ry="4"/>
</g>
<!-- CPTime -->
<g id="node47" class="node">
<title>CPTime</title>
<polygon fill="none" stroke="#000000" points="977.6573,-310 915.3203,-310 915.3203,-274 977.6573,-274 977.6573,-310"/>
<text text-anchor="middle" x="946.4888" y="-287.8" font-family="Times,serif" font-size="14.00" fill="#000000">CPTime</text>
</g>
<!-- Checkpointer&#45;&gt;CPTime -->
<g id="edge46" class="edge">
<title>Checkpointer-&gt;CPTime</title>
<path fill="none" stroke="#000000" d="M946.4888,-345.8314C946.4888,-337.5386 946.4888,-327.557 946.4888,-318.4533"/>
<ellipse fill="none" stroke="#000000" cx="946.4888" cy="-314.4133" rx="4" ry="4"/>
</g>
<!-- CheckpointerDaemon -->
<g id="node48" class="node">
<title>CheckpointerDaemon</title>
<polygon fill="none" stroke="#000000" points="1134.8375,-310 996.1401,-310 996.1401,-274 1134.8375,-274 1134.8375,-310"/>
<text text-anchor="middle" x="1065.4888" y="-287.8" font-family="Times,serif" font-size="14.00" fill="#000000">CheckpointerDaemon</text>
</g>
<!-- Checkpointer&#45;&gt;CheckpointerDaemon -->
<g id="edge47" class="edge">
<title>Checkpointer-&gt;CheckpointerDaemon</title>
<path fill="none" stroke="#000000" d="M976.5175,-345.8314C992.3021,-336.281 1011.7887,-324.4908 1028.4977,-314.3812"/>
<ellipse fill="none" stroke="#000000" cx="1032.0473" cy="-312.2335" rx="4" ry="4"/>
</g>
<!-- xor_1265 -->
<g id="node49" class="node">
<title>xor_1265</title>
<polygon fill="none" stroke="#000000" points="1192.4888,-303 1181.4888,-286.5 1203.4888,-286.5 1192.4888,-303"/>
</g>
<!-- IIO&#45;&gt;xor_1265 -->
<g id="edge48" class="edge">
<title>IIO-&gt;xor_1265</title>
<path fill="none" stroke="#000000" d="M1192.4888,-345.8314C1192.4888,-332.5005 1192.4888,-314.8053 1192.4888,-303.4086"/>
</g>
<!-- OldIO -->
<g id="node50" class="node">
<title>OldIO</title>
<polygon fill="none" stroke="#000000" points="1178.2538,-238 1122.7238,-238 1122.7238,-202 1178.2538,-202 1178.2538,-238"/>
<text text-anchor="middle" x="1150.4888" y="-215.8" font-family="Times,serif" font-size="14.00" fill="#000000">OldIO </text>
</g>
<!-- xor_1265&#45;&gt;OldIO -->
<g id="edge49" class="edge">
<title>xor_1265-&gt;OldIO</title>
<path fill="none" stroke="#000000" d="M1189.1931,-286.3503C1183.1983,-276.0735 1170.2741,-253.9177 1161.0093,-238.0351"/>
</g>
<!-- NewIO -->
<g id="node51" class="node">
<title>NewIO</title>
<polygon fill="none" stroke="#000000" points="1263.6846,-238 1203.293,-238 1203.293,-202 1263.6846,-202 1263.6846,-238"/>
<text text-anchor="middle" x="1233.4888" y="-215.8" font-family="Times,serif" font-size="14.00" fill="#000000">NewIO </text>
</g>
<!-- xor_1265&#45;&gt;NewIO -->
<g id="edge50" class="edge">
<title>xor_1265-&gt;NewIO</title>
<path fill="none" stroke="#000000" d="M1195.706,-286.3503C1201.5581,-276.0735 1214.1745,-253.9177 1223.2188,-238.0351"/>
</g>
<!-- SynchronizedIO -->
<g id="node52" class="node">
<title>SynchronizedIO</title>
<polygon fill="none" stroke="#000000" points="1105.2339,-166 997.7437,-166 997.7437,-130 1105.2339,-130 1105.2339,-166"/>
<text text-anchor="middle" x="1051.4888" y="-143.8" font-family="Times,serif" font-size="14.00" fill="#000000">SynchronizedIO</text>
</g>
<!-- OldIO&#45;&gt;SynchronizedIO -->
<g id="edge51" class="edge">
<title>OldIO-&gt;SynchronizedIO</title>
<path fill="none" stroke="#000000" d="M1125.5069,-201.8314C1112.6097,-192.4516 1096.7416,-180.9112 1083.0098,-170.9244"/>
<ellipse fill="none" stroke="#000000" cx="1079.6976" cy="-168.5155" rx="4" ry="4"/>
</g>
<!-- IO -->
<g id="node53" class="node">
<title>IO</title>
<polygon fill="none" stroke="#000000" points="1177.4888,-166 1123.4888,-166 1123.4888,-130 1177.4888,-130 1177.4888,-166"/>
<text text-anchor="middle" x="1150.4888" y="-143.8" font-family="Times,serif" font-size="14.00" fill="#000000">IO</text>
</g>
<!-- OldIO&#45;&gt;IO -->
<g id="edge52" class="edge">
<title>OldIO-&gt;IO</title>
<path fill="none" stroke="#000000" d="M1150.4888,-201.8314C1150.4888,-193.5386 1150.4888,-183.557 1150.4888,-174.4533"/>
<ellipse fill="#000000" stroke="#000000" cx="1150.4888" cy="-170.4133" rx="4" ry="4"/>
</g>
<!-- DirectNIO -->
<g id="node54" class="node">
<title>DirectNIO</title>
<polygon fill="none" stroke="#000000" points="1271.3403,-166 1195.6373,-166 1195.6373,-130 1271.3403,-130 1271.3403,-166"/>
<text text-anchor="middle" x="1233.4888" y="-143.8" font-family="Times,serif" font-size="14.00" fill="#000000">DirectNIO</text>
</g>
<!-- NewIO&#45;&gt;DirectNIO -->
<g id="edge53" class="edge">
<title>NewIO-&gt;DirectNIO</title>
<path fill="none" stroke="#000000" d="M1233.4888,-201.8314C1233.4888,-193.5386 1233.4888,-183.557 1233.4888,-174.4533"/>
<ellipse fill="none" stroke="#000000" cx="1233.4888" cy="-170.4133" rx="4" ry="4"/>
</g>
<!-- NIOAccess -->
<g id="node55" class="node">
<title>NIOAccess</title>
<polygon fill="none" stroke="#000000" points="1373.5022,-166 1289.4754,-166 1289.4754,-130 1373.5022,-130 1373.5022,-166"/>
<text text-anchor="middle" x="1331.4888" y="-143.8" font-family="Times,serif" font-size="14.00" fill="#000000">NIOAccess </text>
</g>
<!-- NewIO&#45;&gt;NIOAccess -->
<g id="edge54" class="edge">
<title>NewIO-&gt;NIOAccess</title>
<path fill="none" stroke="#000000" d="M1258.2183,-201.8314C1270.9853,-192.4516 1286.6931,-180.9112 1300.2862,-170.9244"/>
<ellipse fill="#000000" stroke="#000000" cx="1303.5436" cy="-168.5312" rx="4" ry="4"/>
</g>
<!-- xor_1270 -->
<g id="node56" class="node">
<title>xor_1270</title>
<polygon fill="none" stroke="#000000" points="1331.4888,-94 1320.4888,-77.5 1342.4888,-77.5 1331.4888,-94"/>
</g>
<!-- NIOAccess&#45;&gt;xor_1270 -->
<g id="edge55" class="edge">
<title>NIOAccess-&gt;xor_1270</title>
<path fill="none" stroke="#000000" d="M1331.4888,-129.8939C1331.4888,-118.4743 1331.4888,-104.0835 1331.4888,-94.2757"/>
</g>
<!-- ChunckedNIO -->
<g id="node57" class="node">
<title>ChunckedNIO</title>
<polygon fill="none" stroke="#000000" points="1333.1291,-36 1235.8485,-36 1235.8485,0 1333.1291,0 1333.1291,-36"/>
<text text-anchor="middle" x="1284.4888" y="-13.8" font-family="Times,serif" font-size="14.00" fill="#000000">ChunckedNIO</text>
</g>
<!-- xor_1270&#45;&gt;ChunckedNIO -->
<g id="edge56" class="edge">
<title>xor_1270-&gt;ChunckedNIO</title>
<path fill="none" stroke="#000000" d="M1327.4816,-77.4581C1320.9551,-68.4321 1307.748,-50.1669 1297.6845,-36.2493"/>
</g>
<!-- NIO -->
<g id="node58" class="node">
<title>NIO</title>
<polygon fill="none" stroke="#000000" points="1405.4888,-36 1351.4888,-36 1351.4888,0 1405.4888,0 1405.4888,-36"/>
<text text-anchor="middle" x="1378.4888" y="-13.8" font-family="Times,serif" font-size="14.00" fill="#000000">NIO</text>
</g>
<!-- xor_1270&#45;&gt;NIO -->
<g id="edge57" class="edge">
<title>xor_1270-&gt;NIO</title>
<path fill="none" stroke="#000000" d="M1335.496,-77.4581C1342.0225,-68.4321 1355.2296,-50.1669 1365.2931,-36.2493"/>
</g>
</g>
</svg>